#!OML:ASF I:\golf\golf\golf 2\Subject 1\2002-09-07\Subject1.ASF
:FULLY-SPECIFIED
:DEGREES
205
root -10.8261 17.9606 4.63607 -2.9574 78.003 -22.2712
lowerback 3.82298 1.16196 -2.92103
upperback 5.55189 1.57319 3.04933
thorax 3.43561 0.667989 4.79182
lowerneck -12.4875 0.329087 2.24972
upperneck 41.0876 4.2408 -5.50481
head 17.3445 1.88435 -1.99911
rclavicle 4.37326e-015 2.49475e-014
rhumerus -13.9744 22.3385 -98.742
rradius 47.6101
rwrist -49.2648
rhand -32.7717 -7.97171
rfingers 7.12502
rthumb -5.99376 -37.8669
lclavicle 4.37326e-015 2.49475e-014
lhumerus -8.52952 -45.5751 104.843
lradius 42.6799
lwrist 48.1764
lhand -5.10274 62.743
lfingers 7.12502
lthumb -159.305 88.3404
rfemur -34.251 -0.248819 16.4011
rtibia 27.875
rfoot -7.54218 -2.67062
rtoes -7.88175
lfemur -31.4483 6.51046 -9.29189
ltibia 27.8927
lfoot -10.326 2.20054
ltoes -11.8786
206
root -10.8228 17.9628 4.63543 -2.62602 78.0796 -21.9408
lowerback 3.78248 1.21125 -3.01022
upperback 5.57015 1.63874 3.04303
thorax 3.46909 0.696508 4.83647
lowerneck -12.4944 0.276573 2.2904
upperneck 41.0735 4.17132 -5.55899
head 17.3361 1.85687 -2.04293
rclavicle -5.46658e-015 3.37934e-015
rhumerus -13.9769 22.2783 -98.7144
rradius 47.6374
rwrist -49.351
rhand -32.8971 -8.03422
rfingers 7.12502
rthumb -6.11487 -37.926
lclavicle -5.46658e-015 3.37934e-015
lhumerus -8.57425 -45.6973 104.87
lradius 42.7586
lwrist 48.2459
lhand -5.43145 62.7911
lfingers 7.12502
lthumb -159.621 88.2582
rfemur -34.2328 -0.354612 16.3211
rtibia 27.861
rfoot -7.52187 -2.58771
rtoes -7.52611
lfemur -31.4479 6.52028 -9.40124
ltibia 27.8432
lfoot -10.3338 2.05322
ltoes -11.3714
207
root -10.819 17.9625 4.63251 -2.51452 78.1661 -21.8226
lowerback 3.74946 1.20533 -3.07215
upperback 5.59617 1.631 3.07917
thorax 3.51389 0.688454 4.91126
lowerneck -12.5157 0.259752 2.25062
upperneck 41.0705 4.19141 -5.6332
head 17.3437 1.84983 -2.06577
rclavicle -1.96797e-014 -1.63003e-014
rhumerus -13.9214 22.2202 -98.7295
rradius 47.5183
rwrist -49.2201
rhand -32.7205 -7.99836
rfingers 7.12502
rthumb -5.94436 -37.895
lclavicle -1.96797e-014 -1.63003e-014
lhumerus -8.56431 -45.587 104.891
lradius 42.7622
lwrist 48.3064
lhand -6.05087 62.8088
lfingers 7.12502
lthumb -160.217 88.178
rfemur -34.2095 -0.555747 16.3111
rtibia 27.8594
rfoot -7.50974 -2.42854
rtoes -7.47473
lfemur -31.4359 6.57429 -9.48839
ltibia 27.7903
lfoot -10.3159 1.88824
ltoes -11.6664
208
root -10.8158 17.9609 4.62913 -3.12646 78.2606 -22.4645
lowerback 3.72951 1.18813 -2.93898
upperback 5.59328 1.60995 3.11702
thorax 3.52595 0.682326 4.87608
lowerneck -12.478 0.266364 2.27446
upperneck 41.0489 4.19651 -5.6404
head 17.3226 1.85579 -2.07182
rclavicle -6.0033e-014 9.14409e-015
rhumerus -13.8939 22.12 -98.8012
rradius 47.3763
rwrist -49.0033
rhand -32.4622 -7.95149
rfingers 7.12502
rthumb -5.69497 -37.855
lclavicle -6.0033e-014 9.14409e-015
lhumerus -8.56986 -45.4029 104.873
lradius 42.7345
lwrist 48.3336
lhand -6.08916 62.8688
lfingers 7.12502
lthumb -160.253 88.1142
rfemur -34.2092 -0.659498 16.4345
rtibia 27.8745
rfoot -7.52152 -2.48216
rtoes -8.11999
lfemur -31.4598 6.6308 -9.42013
ltibia 27.7364
lfoot -10.2728 1.78161
ltoes -12.0115
209
root -10.8136 17.9618 4.62634 -3.59502 78.4004 -22.9499
lowerback 3.75453 1.19964 -2.76205
upperback 5.55684 1.62705 3.08843
thorax 3.47573 0.699716 4.74377
lowerneck -12.3703 0.228893 2.33642
upperneck 41.0413 4.09234 -5.56097
head 17.28 1.83733 -2.06453
rclavicle 2.22639e-014 1.47101e-014
rhumerus -13.9919 22.045 -98.8883
rradius 47.4009
rwrist -48.9483
rhand -32.5482 -8.03168
rfingers 7.12502
rthumb -5.77806 -37.9329
lclavicle 2.22639e-014 1.47101e-014
lhumerus -8.71708 -45.4543 104.895
lradius 42.8304
lwrist 48.7564
lhand -5.32816 62.9251
lfingers 7.12502
lthumb -159.522 88.1348
rfemur -34.2016 -0.657111 16.4629
rtibia 27.9104
rfoot -7.58363 -2.71046
rtoes -8.32447
lfemur -31.489 6.61818 -9.3921
ltibia 27.6812
lfoot -10.2551 1.64312
ltoes -11.2077
210
root -10.8114 17.9636 4.62251 -3.48783 78.5908 -22.8386
lowerback 3.805 1.21091 -2.70771
upperback 5.52375 1.64212 3.05526
thorax 3.4129 0.71164 4.67575
lowerneck -12.3045 0.172516 2.31081
upperneck 41.0594 3.99566 -5.49048
head 17.2628 1.80737 -2.04431
rclavicle 2.89232e-014 4.17448e-015
rhumerus -14.0624 22.0247 -98.9082
rradius 47.4727
rwrist -48.9331
rhand -32.7403 -8.23124
rfingers 7.12502
rthumb -5.9635 -38.1273
lclavicle 2.89232e-014 4.17448e-015
lhumerus -8.8668 -45.7191 104.965
lradius 42.9802
lwrist 49.3603
lhand -4.78842 63.0435
lfingers 7.12502
lthumb -159.003 88.073
rfemur -34.1798 -0.633534 16.3221
rtibia 27.9533
rfoot -7.66605 -2.92152
rtoes -8.47028
lfemur -31.5859 6.78706 -9.6499
ltibia 27.6293
lfoot -10.1271 1.55072
ltoes -12.7502
211
root -10.8096 17.9646 4.61912 -3.27693 78.7845 -22.5983
lowerback 3.8913 1.21843 -2.78503
upperback 5.51378 1.64992 3.09829
thorax 3.35076 0.713786 4.76206
lowerneck -12.3028 0.138822 2.13643
upperneck 41.058 3.96821 -5.40671
head 17.2535 1.7822 -1.978
rclavicle 0 1.59028e-014
rhumerus -14.0424 22.0723 -98.8224
rradius 47.4442
rwrist -48.8532
rhand -32.7833 -8.37746
rfingers 7.12502
rthumb -6.00502 -38.2724
lclavicle 0 1.59028e-014
lhumerus -8.87502 -45.7456 105.069
lradius 42.8925
lwrist 49.0652
lhand -4.80531 62.962
lfingers 7.12502
lthumb -159.02 88.1528
rfemur -34.1348 -0.555653 16.1424
rtibia 28.0004
rfoot -7.67768 -3.17245
rtoes -8.753
lfemur -31.7289 7.21639 -10.0839
ltibia 27.5735
lfoot -9.87092 1.52668
ltoes -16.9141
